<?xml version="1.0" encoding="UTF-8" standalone="no"?>
<!DOCTYPE svg PUBLIC "-//W3C//DTD SVG 1.1//EN" "http://www.w3.org/Graphics/SVG/1.1/DTD/svg11.dtd">
<svg version="1.1" xmlns="http://www.w3.org/2000/svg" xmlns:xlink="http://www.w3.org/1999/xlink" preserveAspectRatio="xMidYMid meet" viewBox="0 0 640 640" width="640" height="640"><defs><path d="M302.02 4.06C299.41 1.45 295.87 -0.01 292.17 0C267.13 0 66.78 0 41.74 0C34.06 -0.01 27.82 6.2 27.8 13.89C27.79 17.59 29.27 21.15 31.89 23.76C51.64 43.51 150.39 142.26 328.15 320C150.39 497.74 51.64 596.49 31.89 616.24C26.45 621.66 26.44 630.47 31.86 635.91C34.48 638.54 38.03 640.01 41.74 640C66.78 640 267.13 640 292.17 640C295.87 640.01 299.41 638.55 302.02 635.94C332.63 605.33 577.5 360.46 608.11 329.85C613.55 324.42 613.56 315.61 608.14 310.17C608.13 310.17 608.12 310.16 608.11 310.15C546.89 248.93 332.63 34.67 302.02 4.06Z" id="b7hiRDJsx0"></path></defs><g><g><g><use xlink:href="#b7hiRDJsx0" opacity="1" fill="#ffffff" fill-opacity="1"></use><g><use xlink:href="#b7hiRDJsx0" opacity="1" fill-opacity="0" stroke="#000000" stroke-width="1" stroke-opacity="0"></use></g></g></g></g></svg>