<svg width="240" height="240" viewBox="0 0 240 240" fill="none" xmlns="http://www.w3.org/2000/svg">
<path d="M186.74 24.892H54.0919L55.8821 11.319C56.4648 6.87976 60.2434 3.56445 64.7188 3.56445H176.112C180.588 3.56445 184.366 6.87976 184.954 11.319L186.74 24.892Z" fill="#465A61"/>
<path d="M169.326 24.892H54.0919L55.8821 11.319C56.4648 6.87976 60.2434 3.56445 64.7188 3.56445H158.694C163.17 3.56445 166.948 6.87976 167.536 11.319L169.326 24.892Z" fill="#596C76"/>
<path d="M202.15 63.9767H38.6821L41.5497 31.6577C41.8881 27.8272 45.0941 24.8921 48.9397 24.8921H191.897C195.738 24.8921 198.944 27.8272 199.282 31.6577L202.15 63.9767Z" fill="#465A61"/>
<path d="M184.731 63.9767H38.6821L41.5497 31.6577C41.8881 27.8272 45.0941 24.8921 48.9397 24.8921H174.478C178.319 24.8921 181.525 27.8272 181.869 31.6577L184.731 63.9767Z" fill="#596C76"/>
<path d="M194.321 63.9744L176.3 229.184C175.848 233.309 172.365 236.436 168.216 236.436H72.6202C68.4666 236.436 64.9831 233.309 64.5316 229.184L46.5103 63.9744H194.321Z" fill="#FEDBA6"/>
<path d="M177.203 63.9744L159.181 229.184C158.735 233.309 155.246 236.436 151.097 236.436H72.6202C68.4666 236.436 64.9831 233.309 64.5316 229.184L46.5103 63.9744H177.203Z" fill="#FFEFD2"/>
<path d="M190.867 95.6863L181.187 184.347L179.677 198.201H61.154L59.6446 184.347L49.9649 95.6863H190.867Z" fill="#008B81"/>
<path d="M173.744 95.6863L164.07 184.347L162.56 198.201H61.154L59.6446 184.347L49.9649 95.6863H173.744Z" fill="#01998D"/>
<path d="M142.336 156.941L131.954 168.094C127.452 172.934 121.342 175.38 115.222 175.38C112.5 175.38 109.772 174.896 107.186 173.923C104.47 172.909 101.904 171.347 99.6503 169.25C90.4072 160.652 89.8921 146.184 98.4949 136.946L108.878 125.793C111.37 123.113 114.363 121.167 117.574 119.97C125.433 117.024 134.624 118.533 141.181 124.638C150.424 133.241 150.939 147.703 142.336 156.941V156.941Z" fill="#883F2E"/>
<path d="M126.255 156.941L115.872 168.094C113.38 170.775 110.392 172.721 107.186 173.923C104.47 172.908 101.904 171.347 99.6503 169.25C90.4072 160.652 89.8921 146.184 98.4949 136.946L108.878 125.793C111.37 123.113 114.363 121.167 117.574 119.969C120.285 120.985 122.846 122.541 125.1 124.638C134.343 133.241 134.858 147.703 126.255 156.941V156.941Z" fill="#A44F3E"/>
<path d="M205.284 63.6609L202.417 31.3438C201.912 25.6333 197.211 21.3276 191.481 21.3276H189.45L188.072 10.8513C187.253 4.66453 181.932 0 175.697 0H64.303C58.063 0 52.745 4.66643 51.9324 10.8532L50.5508 21.3276H48.5234C42.7906 21.3276 38.0871 25.6337 37.5828 31.3424L34.7152 63.6609C34.3027 68.3121 40.0018 67.5404 42.898 67.5404L60.5723 229.571C61.2229 235.517 66.2234 240 72.2044 240H129.592C131.56 240 133.156 238.404 133.156 236.435C133.156 234.466 131.56 232.871 129.592 232.871H72.2044C69.8672 232.871 67.9129 231.119 67.6592 228.797L64.7103 201.764H175.289L172.341 228.796C172.087 231.119 170.135 232.871 167.8 232.871H148.05C146.082 232.871 144.486 234.466 144.486 236.435C144.486 238.404 146.082 240 148.05 240H167.8C173.778 240 178.777 235.516 179.427 229.57L197.102 67.5404C199.998 67.5404 205.697 68.3121 205.284 63.6609V63.6609ZM176.066 194.636H63.9347L53.5287 99.253H186.472L176.066 194.636ZM187.249 92.1243H52.7507L50.0689 67.5404H189.931L187.249 92.1243ZM42.1609 60.4117L44.6844 31.9711C44.8617 29.967 46.5122 28.4562 48.5244 28.4562H76.1732C78.1416 28.4562 79.7375 26.8608 79.7375 24.8919C79.7375 22.923 78.1416 21.3276 76.1732 21.3276H57.7418L59.0007 11.7832C59.349 9.12945 61.6288 7.12867 64.3035 7.12867H175.697C178.372 7.12867 180.654 9.13135 181.005 11.7837L182.26 21.3276H95.2058C93.2373 21.3276 91.6414 22.923 91.6414 24.8919C91.6414 26.8608 93.2373 28.4562 95.2058 28.4562H191.481C193.49 28.4562 195.139 29.9675 195.316 31.9726L197.839 60.4117H42.1609Z" fill="black"/>
<path d="M143.195 122.029C138.029 117.22 131.301 114.705 124.247 114.963C117.195 115.215 110.662 118.199 105.853 123.365L95.47 134.518C90.661 139.683 88.1517 146.412 88.4036 153.466C88.656 160.516 91.6381 167.047 96.8007 171.855C96.8021 171.857 96.8036 171.858 96.805 171.859C96.8064 171.861 96.8083 171.862 96.8097 171.864C101.891 176.592 108.352 178.931 114.8 178.931C121.884 178.931 128.951 176.106 134.147 170.524L144.53 159.371C154.457 148.708 153.859 131.956 143.195 122.029V122.029ZM139.313 154.514L128.93 165.667C122.51 172.562 112.187 173.689 104.5 168.825L120.392 151.755C121.734 150.314 121.653 148.059 120.212 146.717C118.772 145.376 116.516 145.457 115.175 146.897L99.2791 163.971C96.9818 160.869 95.6687 157.153 95.528 153.211C95.3441 148.061 97.1761 143.147 100.688 139.375L111.071 128.222C114.582 124.45 119.352 122.271 124.502 122.088C124.739 122.079 124.974 122.075 125.209 122.075C128.897 122.075 132.442 123.112 135.506 125.059L126.666 134.554C125.324 135.994 125.405 138.25 126.846 139.591C127.533 140.231 128.404 140.547 129.274 140.547C130.229 140.547 131.182 140.165 131.884 139.411L140.718 129.921C146.119 137.241 145.732 147.619 139.313 154.514V154.514Z" fill="black"/>
</svg>
