<svg width="100" height="100" viewBox="0 0 100 100" fill="none" xmlns="http://www.w3.org/2000/svg">
<rect width="100" height="100" rx="50" fill="black"/>
<path d="M52.1954 65.48C48.7554 65.48 45.6554 64.78 42.8954 63.38C40.1754 61.94 38.0354 59.96 36.4754 57.44C34.9554 54.92 34.1954 52.06 34.1954 48.86C34.1954 45.66 34.9554 42.8 36.4754 40.28C38.0354 37.76 40.1754 35.8 42.8954 34.4C45.6554 32.96 48.7554 32.24 52.1954 32.24C55.5954 32.24 58.5554 32.96 61.0754 34.4C63.6354 35.8 65.4954 37.82 66.6554 40.46L59.3954 44.36C57.7154 41.4 55.2954 39.92 52.1354 39.92C49.6954 39.92 47.6754 40.72 46.0754 42.32C44.4754 43.92 43.6754 46.1 43.6754 48.86C43.6754 51.62 44.4754 53.8 46.0754 55.4C47.6754 57 49.6954 57.8 52.1354 57.8C55.3354 57.8 57.7554 56.32 59.3954 53.36L66.6554 57.32C65.4954 59.88 63.6354 61.88 61.0754 63.32C58.5554 64.76 55.5954 65.48 52.1954 65.48Z" fill="white"/>
</svg>
