<svg width="240" height="240" viewBox="0 0 240 240" fill="none" xmlns="http://www.w3.org/2000/svg">
<g clip-path="url(#clip0)">
<path d="M157.241 193.697C154.956 193.697 153.103 191.844 153.103 189.559C153.107 189.084 153.188 188.613 153.343 188.164L153.372 188.081C157.357 176.566 168 157.241 194.359 157.241C222.674 157.241 228.534 129.931 229.419 124.469C229.791 122.34 229.198 120.155 227.801 118.506C226.394 116.827 224.315 115.859 222.124 115.862H190.717C188.432 115.862 186.579 114.009 186.579 111.724C186.579 109.439 188.432 107.586 190.717 107.586H222.124C226.733 107.581 231.109 109.607 234.088 113.123C237.067 116.639 238.346 121.289 237.583 125.834C236.93 129.861 230.135 165.517 194.359 165.517C174.182 165.517 165.19 179.247 161.197 190.759C160.669 192.502 159.063 193.695 157.241 193.697V193.697Z" fill="#95A5A5"/>
<path d="M75.8483 168.662L53.3793 136.138C45.7943 124.685 41.6316 111.307 41.3793 97.5723V95.1723L115.862 86.8965L198.621 95.1723V97.5723C198.495 112.097 193.676 126.191 184.883 137.752C176.938 148.303 167.586 166.096 162.662 194.483L128.276 206.896L75.8483 168.662Z" fill="#E64C3C"/>
<path d="M211.034 202.552V203.007C211.04 205.466 209.929 207.795 208.014 209.338L192.579 221.669C191.148 222.819 189.367 223.446 187.531 223.448H113.421C114.579 222.455 115.697 221.421 116.814 220.303C124.085 213.283 129.184 204.32 131.503 194.483H202.965C205.107 194.478 207.162 195.327 208.676 196.841C210.19 198.355 211.039 200.41 211.034 202.552V202.552Z" fill="#C03A2B"/>
<path d="M131.503 194.483C129.184 204.32 124.085 213.283 116.814 220.303C115.697 221.421 114.579 222.455 113.421 223.448C96.5793 237.848 74.4 240.083 62.3172 228.083C62.0465 227.828 61.7974 227.551 61.5724 227.255C61.4916 227.183 61.4218 227.099 61.3655 227.007C60.4309 225.993 59.5863 224.899 58.8414 223.738C69.0621 214.055 76.7586 221.421 86.9793 211.241C97.3655 200.897 89.5862 193.117 99.9724 182.772C110.152 172.593 117.89 179.959 128.069 170.276H128.11C128.862 171.482 129.526 172.74 130.097 174.041C132.659 180.548 133.15 187.687 131.503 194.483V194.483Z" fill="#805333"/>
<path d="M128.11 170.276H128.069C117.89 179.959 110.152 172.593 99.9724 182.773C89.5862 193.117 97.3655 200.897 86.9793 211.241C76.7586 221.421 69.0621 214.055 58.8414 223.738C58.0897 222.518 57.4259 221.246 56.8552 219.931C51.1448 206.483 56.0276 187.697 70.1379 173.71C71.921 171.909 73.8292 170.236 75.8483 168.704V168.662C92.3586 156 113.048 154.469 124.634 165.931C124.985 166.259 125.303 166.62 125.586 167.007C126.511 168.03 127.355 169.122 128.11 170.276V170.276Z" fill="#A56A43"/>
<path d="M75.8483 168.662V168.703C73.8292 170.236 71.921 171.909 70.1379 173.71C54.6621 189.062 50.2759 210.207 58.8414 223.738C59.6423 224.991 60.5565 226.169 61.5724 227.255C57.9274 230.152 53.8315 232.43 49.4483 234C48.1049 234.449 46.7372 234.822 45.3517 235.117C44.9379 218.566 32.3586 218.317 32.3586 201.393C32.3586 184.138 45.3517 184.138 45.3517 166.883C45.3517 149.959 32.7724 149.71 32.3586 133.159C33.7101 132.868 35.0782 132.661 36.4552 132.538C37.2525 132.455 38.0536 132.414 38.8552 132.414C43.9306 132.43 48.9221 133.71 53.3793 136.138C65.1415 143.303 73.3087 155.125 75.8483 168.662Z" fill="#CB8252"/>
<path d="M32.3586 201.393C32.3586 218.317 44.9379 218.566 45.3517 235.117C43.9997 235.405 42.6318 235.612 41.2552 235.738C18.6621 237.517 -0.0413794 213.724 -1.24528e-07 184.138C-0.0413794 160.51 11.9586 140.524 28.2621 134.4C29.5868 133.862 30.958 133.446 32.3586 133.159C32.7724 149.71 45.3517 149.959 45.3517 166.883C45.3517 184.138 32.3586 184.138 32.3586 201.393Z" fill="#CF976A"/>
<path d="M91.0345 57.931C88.7492 57.931 86.8965 56.0784 86.8965 53.7931C86.9734 49.589 88.9974 45.6587 92.3752 43.1545C94.3655 41.3297 95.1724 40.5145 95.1724 38.6028C95.1724 36.691 94.3448 35.8883 92.3752 34.051C89.0021 31.5521 86.9785 27.6302 86.8965 23.4331C86.9731 19.2302 88.9993 15.3018 92.3793 12.8028C94.3655 10.9779 95.1724 10.1669 95.1724 8.27587C95.1724 5.99055 97.025 4.13794 99.3103 4.13794C101.596 4.13794 103.448 5.99055 103.448 8.27587C103.37 12.4762 101.346 16.4022 97.9697 18.9021C95.9793 20.7269 95.1724 21.5379 95.1724 23.4538C95.1724 25.3697 96 26.1683 97.9697 28.0055C101.338 30.5027 103.361 34.4186 103.448 38.611C103.367 42.8118 101.344 46.7377 97.9697 49.2414C96 51.0786 95.1724 51.8938 95.1724 53.7931C95.1724 56.0784 93.3198 57.931 91.0345 57.931V57.931Z" fill="#805333"/>
<path d="M115.862 57.931C113.577 57.931 111.724 56.0784 111.724 53.7931C111.801 49.589 113.825 45.6587 117.203 43.1545C119.193 41.3297 120 40.5145 120 38.6028C120 36.691 119.172 35.8883 117.203 34.051C113.83 31.5521 111.806 27.6302 111.724 23.4331C111.801 19.2302 113.827 15.3018 117.207 12.8028C119.193 10.9779 120 10.1669 120 8.27587C120 5.99055 121.853 4.13794 124.138 4.13794C126.423 4.13794 128.276 5.99055 128.276 8.27587C128.198 12.4762 126.174 16.4022 122.797 18.9021C120.807 20.7269 120 21.5379 120 23.4538C120 25.3697 120.828 26.1683 122.797 28.0055C126.166 30.5027 128.189 34.4186 128.276 38.611C128.195 42.8118 126.171 46.7377 122.797 49.2414C120.828 51.0786 120 51.8938 120 53.7931C120 56.0784 118.147 57.931 115.862 57.931V57.931Z" fill="#805333"/>
<path d="M140.69 57.931C138.404 57.931 136.552 56.0784 136.552 53.7931C136.629 49.589 138.653 45.6587 142.03 43.1545C144.021 41.3297 144.828 40.5145 144.828 38.6028C144.828 36.691 144 35.8883 142.03 34.051C138.657 31.5521 136.634 27.6302 136.552 23.4331C136.628 19.2302 138.654 15.3018 142.035 12.8028C144.021 10.9779 144.828 10.1669 144.828 8.27587C144.828 5.99055 146.68 4.13794 148.966 4.13794C151.251 4.13794 153.103 5.99055 153.103 8.27587C153.025 12.4762 151.001 16.4022 147.625 18.9021C145.635 20.7269 144.828 21.5379 144.828 23.4538C144.828 25.3697 145.655 26.1683 147.625 28.0055C150.994 30.5027 153.016 34.4186 153.103 38.611C153.022 42.8118 150.999 46.7377 147.625 49.2414C145.655 51.0786 144.828 51.8938 144.828 53.7931C144.828 56.0784 142.975 57.931 140.69 57.931V57.931Z" fill="#805333"/>
<path d="M42.1241 216.083C46.518 221.057 49.0993 227.372 49.4483 234C48.1049 234.449 46.7372 234.822 45.3517 235.117C43.9997 235.405 42.6318 235.612 41.2552 235.738C41.2209 235.575 41.207 235.408 41.2138 235.241C41.0993 229.981 39.0857 224.94 35.5448 221.048C25.7785 209.733 25.7785 192.97 35.5448 181.655C39.2472 177.633 41.2748 172.349 41.2138 166.883C41.2952 161.445 39.28 156.185 35.5862 152.193C31.2234 147.248 28.6446 140.983 28.2621 134.4C29.5868 133.862 30.958 133.446 32.3586 133.159C33.7101 132.868 35.0782 132.661 36.4552 132.538C36.4895 132.701 36.5034 132.868 36.4966 133.034C36.6111 138.295 38.6246 143.336 42.1655 147.228C51.9318 158.543 51.9318 175.306 42.1655 186.621C38.4632 190.643 36.4356 195.927 36.4966 201.393C36.4151 206.831 38.4304 212.091 42.1241 216.083V216.083Z" fill="#805333"/>
<path d="M130.097 174.041C125.833 177.792 120.452 180.032 114.786 180.414C105.516 180.927 98.1076 188.317 97.5724 197.586C96.5623 210.545 86.2451 220.827 73.2828 221.793C68.9451 221.983 64.8256 223.749 61.6966 226.759C61.5724 226.841 61.4897 226.924 61.3655 227.007C60.4309 225.992 59.5863 224.899 58.8414 223.738C58.0897 222.518 57.4259 221.246 56.8552 219.931C61.1233 216.22 66.4825 213.998 72.1241 213.6C76.626 213.416 80.8882 211.522 84.0414 208.303C87.2841 205.18 89.1963 200.926 89.3793 196.428C90.3902 183.485 100.683 173.209 113.628 172.221C117.958 172.036 122.075 170.286 125.214 167.296C125.328 167.187 125.452 167.09 125.586 167.007C126.511 168.029 127.355 169.122 128.11 170.276C128.862 171.482 129.526 172.74 130.097 174.041V174.041Z" fill="#603E26"/>
<path d="M198.621 78.6208V95.1725H41.3793V78.6208C41.3929 74.0559 45.0902 70.3586 49.6552 70.345H190.345C194.91 70.3586 198.607 74.0559 198.621 78.6208Z" fill="#F9EAB0"/>
</g>
<defs>
<clipPath id="clip0">
<rect width="240" height="240" fill="white"/>
</clipPath>
</defs>
</svg>
