<svg width="448.075" height="448.075" xmlns="http://www.w3.org/2000/svg">

 <g>
  <title>background</title>
  <rect fill="none" id="canvas_background" height="602" width="802" y="-1" x="-1"/>
 </g>
 <g>
  <title>Layer 1</title>
  <path fill="white" id="svg_1" d="m352.021,16.075c0,-6.08 -3.52,-11.84 -8.96,-14.4c-5.76,-2.88 -12.16,-1.92 -16.96,1.92l-141.76,112.96l167.68,167.68l0,-268.16z"/>
  <path fill="white" id="svg_2" d="m443.349,420.747l-416,-416c-6.24,-6.24 -16.384,-6.24 -22.624,0s-6.24,16.384 0,22.624l100.672,100.704l-9.376,0c-9.92,0 -18.56,4.48 -24.32,11.52c-4.8,5.44 -7.68,12.8 -7.68,20.48l0,128c0,17.6 14.4,32 32,32l74.24,0l155.84,124.48c2.88,2.24 6.4,3.52 9.92,3.52c2.24,0 4.8,-0.64 7.04,-1.6c5.44,-2.56 8.96,-8.32 8.96,-14.4l0,-57.376l68.672,68.672c3.136,3.136 7.232,4.704 11.328,4.704s8.192,-1.568 11.328,-4.672c6.24,-6.272 6.24,-16.384 0,-22.656z"/>
  <g id="svg_3"/>
  <g id="svg_4"/>
  <g id="svg_5"/>
  <g id="svg_6"/>
  <g id="svg_7"/>
  <g id="svg_8"/>
  <g id="svg_9"/>
  <g id="svg_10"/>
  <g id="svg_11"/>
  <g id="svg_12"/>
  <g id="svg_13"/>
  <g id="svg_14"/>
  <g id="svg_15"/>
  <g id="svg_16"/>
  <g id="svg_17"/>
 </g>
</svg>