<svg width="240" height="240" viewBox="0 0 240 240" fill="none" xmlns="http://www.w3.org/2000/svg">
<g clip-path="url(#clip0)">
<path d="M176.321 174.248C174.439 174.249 172.793 172.979 172.316 171.158C171.84 169.337 172.652 167.424 174.294 166.502C178.759 164.08 183.546 162.306 188.512 161.234C190.101 160.866 191.822 160.506 193.581 160.126C209.305 156.774 228.881 152.599 231.43 133.924C231.615 132.545 231.713 131.156 231.724 129.766V111.646C231.724 109.36 233.577 107.508 235.862 107.508C238.147 107.508 240 109.36 240 111.646V129.766C239.988 131.515 239.867 133.262 239.636 134.996C236.292 159.484 211.63 164.739 195.306 168.219C193.577 168.588 191.921 168.943 190.366 169.303C186.17 170.198 182.122 171.685 178.345 173.719C177.727 174.066 177.03 174.248 176.321 174.248V174.248Z" fill="#95A5A5"/>
<path d="M240 110.69V129.765C240 108.083 216.869 105.393 198.29 111.724H198.124C190.345 105.517 190.469 106.51 190.345 101.379L198.579 92.524C198.638 92.5302 198.696 92.5155 198.745 92.4826C217.241 86.3585 240 89.2137 240 110.69Z" fill="#D1D4D1"/>
<path d="M198.579 94.0964C198.703 99.2275 198.621 105.227 198.124 111.724C197.116 132.341 191.048 152.393 180.455 170.11C166.345 191.959 141.766 208.965 99.3103 208.965C7.94481 208.965 -0.786226 130.055 0.0413599 94.0964H198.579Z" fill="#BDC3C7"/>
<path d="M198.621 93.1034C198.627 93.2562 198.613 93.4091 198.58 93.5586C198.621 93.6413 198.58 93.6827 198.58 93.7655C198.622 93.8719 198.622 93.9901 198.58 94.0965C197.753 127.903 153.601 155.172 99.3111 155.172C45.0215 155.172 0.869726 127.903 0.0421401 94.0965C0.000592512 93.9901 0.000592512 93.8719 0.0421401 93.7655C0.0421401 93.6827 0.000760763 93.6413 0.0421401 93.5586C0.0096245 93.4091 -0.00427415 93.2562 0.000760802 93.1034C0.000760802 58.8413 44.4835 31.0344 99.3111 31.0344C154.139 31.0344 198.621 58.8413 198.621 93.1034Z" fill="#ECF0F1"/>
<path d="M99.3103 138.621C145.017 138.621 182.069 118.242 182.069 93.1034C182.069 67.9649 145.017 47.5862 99.3103 47.5862C53.604 47.5862 16.5517 67.9649 16.5517 93.1034C16.5517 118.242 53.604 138.621 99.3103 138.621Z" fill="#A56A43"/>
<path d="M99.3104 142.759C50.5862 142.759 12.4138 120.948 12.4138 93.1034C12.4138 65.2593 50.5862 43.4482 99.3104 43.4482C148.035 43.4482 186.207 65.2593 186.207 93.1034C186.207 120.948 148.035 142.759 99.3104 142.759ZM99.3104 51.7241C56.6897 51.7241 20.6897 70.6758 20.6897 93.1034C20.6897 115.531 56.6897 134.483 99.3104 134.483C141.931 134.483 177.931 115.531 177.931 93.1034C177.931 70.6758 141.931 51.7241 99.3104 51.7241Z" fill="#BDC3C7"/>
<path d="M99.3104 196.552C72.5379 196.552 51.6911 189.103 37.3448 174.405C35.7451 172.769 35.7748 170.146 37.4111 168.546C39.0473 166.946 41.6706 166.976 43.2704 168.612C56.0111 181.655 74.8676 188.276 99.3104 188.276C101.596 188.276 103.448 190.128 103.448 192.414C103.448 194.699 101.596 196.552 99.3104 196.552Z" fill="white"/>
<path d="M144.828 93.1033C142.542 93.1033 140.69 94.9559 140.69 97.2413C140.69 107.76 124.022 116.747 103.448 117.823V109.456C116.532 108.492 125.35 103.208 127.601 99.3102C128.676 97.4193 128.042 95.0161 126.174 93.902C124.251 92.7524 121.767 93.2791 120.476 95.1102C115.631 98.9678 109.641 101.103 103.448 101.181V91.9695C119.855 86.6689 128.276 80.1102 128.276 72.4137C128.276 65.3378 121.159 59.9999 111.724 59.9999C107.407 59.9236 103.14 60.9278 99.3103 62.9213C95.4806 60.9278 91.2133 59.9236 86.8965 59.9999C77.4621 59.9999 70.3448 65.3378 70.3448 72.4137C70.3448 80.1102 78.7655 86.6689 95.1724 91.9695V101.181C89.0041 101.091 83.0354 98.9803 78.182 95.1723C77.4674 93.8443 76.0868 93.0102 74.5788 92.9955C73.0707 92.9807 71.6741 93.7875 70.9335 95.1013C70.193 96.4151 70.2259 98.0277 71.0193 99.3102C73.2703 103.208 82.0883 108.492 95.1724 109.456V117.823C74.5986 116.747 57.931 107.76 57.931 97.2413C57.931 94.9559 56.0784 93.1033 53.7931 93.1033C51.5078 93.1033 49.6552 94.9559 49.6552 97.2413C49.6552 113.483 71.4662 126.207 99.3103 126.207C127.154 126.207 148.966 113.483 148.966 97.2413C148.966 94.9559 147.113 93.1033 144.828 93.1033V93.1033Z" fill="#FDD7AD"/>
</g>
<defs>
<clipPath id="clip0">
<rect width="240" height="240" fill="white"/>
</clipPath>
</defs>
</svg>
