<?xml version="1.0" encoding="UTF-8" standalone="no"?>
<!DOCTYPE svg PUBLIC "-//W3C//DTD SVG 1.1//EN" "http://www.w3.org/Graphics/SVG/1.1/DTD/svg11.dtd">
<svg version="1.1" xmlns="http://www.w3.org/2000/svg" xmlns:xlink="http://www.w3.org/1999/xlink" preserveAspectRatio="xMidYMid meet" viewBox="0 0 640 640" width="640" height="640"><defs><path d="M234.28 50.08C232.05 47.85 229.02 46.6 225.87 46.61C204.47 46.61 33.3 46.61 11.91 46.61C5.34 46.6 0.01 51.91 0 58.48C-0.01 61.64 1.25 64.68 3.49 66.91C20.37 83.79 104.74 168.15 256.6 320C104.74 471.85 20.37 556.21 3.49 573.09C-1.16 577.72 -1.16 585.25 3.47 589.9C5.71 592.14 8.74 593.4 11.91 593.39C33.3 593.39 204.47 593.39 225.87 593.39C229.02 593.4 232.05 592.15 234.28 589.92C260.43 563.77 469.63 354.57 495.78 328.42C500.43 323.78 500.44 316.25 495.81 311.6C495.8 311.6 495.79 311.59 495.78 311.58C443.48 259.28 260.43 76.23 234.28 50.08Z" id="d40l8xiFi7"></path></defs><g><g><g><use xlink:href="#d40l8xiFi7" opacity="1" fill="#ffffff" fill-opacity="1"></use><g><use xlink:href="#d40l8xiFi7" opacity="1" fill-opacity="0" stroke="#000000" stroke-width="1" stroke-opacity="0"></use></g></g></g></g></svg>