<svg width="480" height="480" xmlns="http://www.w3.org/2000/svg">

 <g>
  <title>background</title>
  <rect fill="none" id="canvas_background" height="602" width="802" y="-1" x="-1"/>
 </g>
 <g>
  <title>Layer 1</title>
  <path fill="white" id="svg_1" d="m278.944,17.577c-5.568,-2.656 -12.128,-1.952 -16.928,1.92l-155.648,124.512l-74.368,0c-17.632,0 -32,14.368 -32,32l0,128c0,17.664 14.368,32 32,32l74.368,0l155.616,124.512c2.912,2.304 6.464,3.488 10.016,3.488c2.368,0 4.736,-0.544 6.944,-1.6c5.536,-2.656 9.056,-8.256 9.056,-14.4l0,-416c0,-6.144 -3.52,-11.744 -9.056,-14.432z"/>
  <path fill="white" id="svg_2" d="m368.992,126.857c-6.304,-6.208 -16.416,-6.112 -22.624,0.128c-6.208,6.304 -6.144,16.416 0.128,22.656c24.192,23.872 37.504,55.968 37.504,90.368s-13.312,66.496 -37.504,90.368c-6.272,6.176 -6.336,16.32 -0.128,22.624c3.136,3.168 7.264,4.736 11.36,4.736c4.064,0 8.128,-1.536 11.264,-4.64c30.336,-29.856 47.008,-70.048 47.008,-113.088s-16.672,-83.232 -47.008,-113.152z"/>
  <path fill="white" id="svg_3" d="m414.144,81.769c-6.304,-6.24 -16.416,-6.176 -22.656,0.096c-6.208,6.272 -6.144,16.416 0.096,22.624c36.384,36.064 56.416,84.192 56.416,135.52s-20.032,99.424 -56.416,135.488c-6.24,6.24 -6.304,16.384 -0.096,22.656c3.168,3.136 7.264,4.704 11.36,4.704c4.064,0 8.16,-1.536 11.296,-4.64c42.496,-42.08 65.856,-98.272 65.856,-158.208s-23.36,-116.128 -65.856,-158.24z"/>
  <g id="svg_4"/>
  <g id="svg_5"/>
  <g id="svg_6"/>
  <g id="svg_7"/>
  <g id="svg_8"/>
  <g id="svg_9"/>
  <g id="svg_10"/>
  <g id="svg_11"/>
  <g id="svg_12"/>
  <g id="svg_13"/>
  <g id="svg_14"/>
  <g id="svg_15"/>
  <g id="svg_16"/>
  <g id="svg_17"/>
  <g id="svg_18"/>
 </g>
</svg>